<svg width="123" height="41" viewBox="0 0 123 41" fill="none" xmlns="http://www.w3.org/2000/svg">
<g clip-path="url(#clip0_2_211)">
<path d="M113.205 -0.000110891H9.80048C9.42356 -0.000110891 9.05116 -0.000110891 8.67523 0.00193911C8.36055 0.00398911 8.04837 0.00994436 7.73067 0.0149566C7.04046 0.023056 6.35188 0.0836073 5.6709 0.196084C4.99088 0.31101 4.33217 0.527678 3.71703 0.838759C3.10265 1.15247 2.54127 1.56011 2.05326 2.04689C1.56268 2.53229 1.15375 3.09336 0.842191 3.7085C0.529768 4.32243 0.313133 4.9803 0.199768 5.65941C0.0853251 6.33765 0.0237423 7.02372 0.0155723 7.71146C0.00603364 8.02572 0.00502632 8.34103 0 8.65534V32.3475C0.00502632 32.6657 0.00603364 32.974 0.0155723 33.2924C0.0237448 33.9801 0.0853276 34.6661 0.199768 35.3443C0.31282 36.0238 0.529468 36.6821 0.842191 37.2963C1.15361 37.9094 1.5626 38.4682 2.05326 38.9509C2.53942 39.4398 3.10116 39.8478 3.71703 40.1591C4.33216 40.471 4.99081 40.689 5.6709 40.8057C6.35199 40.9172 7.04051 40.9778 7.73067 40.9869C8.04837 40.9938 8.36055 40.9978 8.67523 40.9978C9.05115 40.9999 9.42358 40.9999 9.80048 40.9999H113.205C113.574 40.9999 113.95 40.9999 114.319 40.9978C114.632 40.9978 114.954 40.9938 115.267 40.9869C115.956 40.9783 116.643 40.9177 117.323 40.8057C118.005 40.6881 118.666 40.4702 119.284 40.1591C119.899 39.8476 120.461 39.4397 120.946 38.9509C121.436 38.4663 121.846 37.9079 122.161 37.2963C122.471 36.6817 122.686 36.0235 122.797 35.3443C122.912 34.666 122.976 33.9802 122.988 33.2924C122.992 32.974 122.992 32.6657 122.992 32.3475C123 31.9751 123 31.6047 123 31.2263V9.77442C123 9.39906 123 9.02669 122.992 8.65534C122.992 8.34103 122.992 8.02572 122.988 7.71141C122.976 7.02362 122.912 6.33771 122.797 5.65937C122.685 4.98065 122.471 4.32283 122.161 3.70846C121.526 2.47547 120.52 1.47182 119.284 0.838667C118.666 0.528346 118.005 0.311736 117.323 0.195992C116.643 0.0830195 115.956 0.0224471 115.267 0.0148131C114.954 0.00981111 114.632 0.00380461 114.319 0.00180586C113.95 -0.000244141 113.574 -0.000244141 113.205 -0.000244141V-0.000110891Z" fill="#A6A6A6"/>
<path d="M8.68024 40.103C8.36707 40.103 8.06146 40.099 7.75074 40.092C7.10707 40.0836 6.4649 40.0278 5.8295 39.9248C5.23702 39.8231 4.66306 39.6338 4.12657 39.3632C3.59499 39.0949 3.11016 38.7431 2.69063 38.3212C2.26502 37.9043 1.91069 37.4208 1.64167 36.8898C1.36968 36.3554 1.18145 35.7825 1.08353 35.1912C0.977785 34.5558 0.920573 33.9133 0.912387 33.2693C0.90587 33.0531 0.897339 32.3334 0.897339 32.3334V8.6553C0.897339 8.6553 0.906425 7.94661 0.912438 7.7384C0.920277 7.0954 0.977156 6.45392 1.08258 5.81953C1.18068 5.22658 1.36906 4.65207 1.64119 4.11587C1.90923 3.58525 2.26159 3.10136 2.68463 2.68298C3.1072 2.26062 3.59359 1.90697 4.12607 1.63494C4.66133 1.36525 5.2342 1.1773 5.82548 1.07741C6.46296 0.973436 7.10736 0.917225 7.75327 0.909244L8.68075 0.896729H114.314L115.253 0.909746C115.893 0.91733 116.531 0.97304 117.163 1.0764C117.76 1.17755 118.339 1.36681 118.88 1.63795C119.947 2.18616 120.815 3.0535 121.363 4.11838C121.631 4.65087 121.816 5.2207 121.913 5.80852C122.02 6.44812 122.079 7.09464 122.092 7.74291C122.095 8.03319 122.095 8.34499 122.095 8.6553C122.103 9.03968 122.103 9.40553 122.103 9.77439V31.2263C122.103 31.5987 122.103 31.962 122.095 32.3284C122.095 32.6617 122.095 32.967 122.091 33.2813C122.079 33.918 122.02 34.553 121.915 35.1811C121.819 35.7767 121.632 36.3541 121.36 36.8929C121.089 37.4181 120.737 37.8974 120.316 38.3132C119.896 38.7374 119.41 39.0912 118.877 39.3613C118.338 39.6339 117.76 39.8239 117.163 39.9248C116.528 40.0283 115.885 40.0842 115.242 40.092C114.941 40.099 114.625 40.103 114.319 40.103L113.205 40.105L8.68024 40.103Z" fill="black"/>
<path d="M25.4595 20.8081C25.4705 19.9526 25.6984 19.1138 26.1219 18.3697C26.5454 17.6256 27.1508 17.0004 27.8817 16.5523C27.4174 15.891 26.8048 15.3468 26.0927 14.9628C25.3805 14.5789 24.5884 14.3659 23.7793 14.3406C22.0532 14.16 20.3799 15.3706 19.5003 15.3706C18.6038 15.3706 17.2495 14.3586 15.7912 14.3885C14.848 14.4189 13.9287 14.6924 13.123 15.1824C12.3172 15.6724 11.6525 16.3622 11.1936 17.1846C9.20571 20.6167 10.6885 25.6608 12.5928 28.4351C13.5455 29.7935 14.659 31.311 16.116 31.2572C17.5417 31.1982 18.0742 30.3506 19.7951 30.3506C21.5001 30.3506 21.9997 31.2572 23.4863 31.223C25.0161 31.1982 25.98 29.8584 26.8993 28.4871C27.5839 27.5191 28.1106 26.4493 28.4601 25.3173C27.5713 24.9424 26.8128 24.3149 26.2792 23.5131C25.7456 22.7112 25.4605 21.7705 25.4595 20.8081Z" fill="white"/>
<path d="M22.6516 12.5161C23.4858 11.5176 23.8967 10.2341 23.7972 8.93823C22.5228 9.07171 21.3456 9.67908 20.5002 10.6393C20.0869 11.1084 19.7703 11.6542 19.5686 12.2454C19.3668 12.8366 19.284 13.4616 19.3246 14.0848C19.962 14.0913 20.5927 13.9535 21.1689 13.6818C21.7452 13.4101 22.2522 13.0115 22.6516 12.5161Z" fill="white"/>
<path d="M43.4816 27.8181H38.6162L37.4478 31.2585H35.387L39.9954 18.53H42.1365L46.7449 31.2585H44.649L43.4816 27.8181ZM39.1201 26.2306H42.9767L41.0755 20.6471H41.0223L39.1201 26.2306Z" fill="white"/>
<path d="M56.6974 26.619C56.6974 29.5028 55.1495 31.3556 52.8137 31.3556C52.222 31.3865 51.6335 31.2505 51.1157 30.9634C50.5979 30.6763 50.1716 30.2495 49.8857 29.732H49.8415V34.3285H47.9313V21.9784H49.7803V23.522H49.8154C50.1145 23.0069 50.5479 22.5824 51.0697 22.2935C51.5915 22.0046 52.1821 21.8622 52.7786 21.8813C55.1404 21.8814 56.6974 23.7432 56.6974 26.619ZM54.7339 26.619C54.7339 24.7402 53.7603 23.5049 52.2747 23.5049C50.8152 23.5049 49.8335 24.7662 49.8335 26.619C49.8335 28.4888 50.8152 29.741 52.2747 29.741C53.7603 29.741 54.7339 28.5148 54.7339 26.619Z" fill="white"/>
<path d="M66.94 26.619C66.94 29.5028 65.3922 31.3556 63.0564 31.3556C62.4647 31.3865 61.8762 31.2505 61.3584 30.9634C60.8406 30.6763 60.4143 30.2495 60.1284 29.732H60.0842V34.3285H58.174V21.9784H60.0229V23.5219H60.0581C60.3571 23.0069 60.7906 22.5824 61.3124 22.2935C61.8342 22.0046 62.4247 21.8622 63.0212 21.8814C65.3832 21.8814 66.94 23.7432 66.94 26.619ZM64.9766 26.619C64.9766 24.7401 64.003 23.5049 62.5174 23.5049C61.0579 23.5049 60.0761 24.7662 60.0761 26.619C60.0761 28.4888 61.0579 29.741 62.5174 29.741C64.003 29.741 64.9766 28.5148 64.9766 26.619H64.9766Z" fill="white"/>
<path d="M73.7096 27.7121C73.8512 28.9743 75.0808 29.8031 76.7611 29.8031C78.3712 29.8031 79.5296 28.9743 79.5296 27.8362C79.5296 26.8482 78.8309 26.2566 77.1767 25.8512L75.5225 25.4538C73.1786 24.8893 72.0905 23.7962 72.0905 22.0225C72.0905 19.8263 74.0098 18.3179 76.735 18.3179C79.4322 18.3179 81.2812 19.8263 81.3434 22.0225H79.4151C79.2997 20.7522 78.2467 19.9855 76.7079 19.9855C75.1691 19.9855 74.1161 20.7613 74.1161 21.8904C74.1161 22.7902 74.7887 23.3198 76.4339 23.7251L77.8402 24.0695C80.4591 24.6871 81.5472 25.7361 81.5472 27.5979C81.5472 29.9792 79.645 31.4707 76.6196 31.4707C73.7889 31.4707 71.8777 30.0142 71.7542 27.712L73.7096 27.7121Z" fill="white"/>
<path d="M85.6697 19.7822V21.9784H87.4393V23.4868H85.6697V28.6028C85.6697 29.3976 86.024 29.768 86.8019 29.768C87.012 29.7643 87.2218 29.7496 87.4303 29.7239V31.2234C87.0805 31.2885 86.7251 31.318 86.3693 31.3114C84.4852 31.3114 83.7504 30.6058 83.7504 28.806V23.4868H82.3973V21.9784H83.7504V19.7822H85.6697Z" fill="white"/>
<path d="M88.4643 26.6189C88.4643 23.699 90.1888 21.8643 92.878 21.8643C95.5762 21.8643 97.2926 23.699 97.2926 26.6189C97.2926 29.5468 95.5852 31.3735 92.878 31.3735C90.1717 31.3735 88.4643 29.5467 88.4643 26.6189ZM95.3463 26.6189C95.3463 24.6159 94.4258 23.4338 92.878 23.4338C91.3301 23.4338 90.4107 24.625 90.4107 26.6189C90.4107 28.6299 91.3301 29.803 92.878 29.803C94.4258 29.803 95.3463 28.6299 95.3463 26.6189H95.3463Z" fill="white"/>
<path d="M98.8675 21.9784H100.689V23.5579H100.734C100.857 23.0646 101.147 22.6286 101.554 22.3233C101.962 22.0179 102.463 21.8619 102.972 21.8813C103.192 21.8805 103.412 21.9043 103.626 21.9523V23.7341C103.349 23.6494 103.059 23.6105 102.768 23.619C102.491 23.6077 102.214 23.6565 101.957 23.762C101.7 23.8674 101.47 24.0271 101.28 24.2299C101.091 24.4327 100.948 24.674 100.862 24.9371C100.775 25.2002 100.746 25.4789 100.778 25.754V31.2584H98.8674L98.8675 21.9784Z" fill="white"/>
<path d="M112.434 28.5328C112.177 30.2174 110.531 31.3735 108.427 31.3735C105.719 31.3735 104.039 29.5648 104.039 26.6629C104.039 23.7521 105.728 21.8643 108.346 21.8643C110.921 21.8643 112.54 23.628 112.54 26.4417V27.0944H105.967V27.2095C105.937 27.551 105.98 27.8951 106.093 28.2188C106.206 28.5425 106.387 28.8385 106.624 29.0871C106.861 29.3358 107.148 29.5313 107.466 29.6607C107.785 29.7902 108.127 29.8506 108.471 29.838C108.922 29.8802 109.375 29.776 109.762 29.5408C110.15 29.3056 110.45 28.9521 110.62 28.5328L112.434 28.5328ZM105.976 25.7631H110.629C110.646 25.456 110.599 25.1487 110.492 24.8604C110.384 24.5722 110.218 24.3092 110.004 24.0881C109.789 23.8669 109.531 23.6923 109.246 23.5753C108.961 23.4582 108.655 23.4012 108.346 23.4078C108.035 23.4059 107.727 23.4655 107.439 23.5831C107.151 23.7007 106.889 23.874 106.669 24.093C106.449 24.312 106.274 24.5723 106.155 24.8589C106.036 25.1456 105.976 25.4529 105.976 25.7631V25.7631Z" fill="white"/>
<path d="M38.8807 8.94908C39.2812 8.92042 39.683 8.98075 40.0573 9.12572C40.4315 9.27069 40.7689 9.49668 41.045 9.7874C41.321 10.0781 41.529 10.4263 41.6537 10.8069C41.7785 11.1874 41.8171 11.5908 41.7666 11.988C41.7666 13.9419 40.7076 15.0651 38.8807 15.0651H36.6653V8.94908H38.8807ZM37.6179 14.2002H38.7743C39.0604 14.2172 39.3468 14.1704 39.6126 14.0632C39.8783 13.956 40.1167 13.791 40.3105 13.5803C40.5042 13.3696 40.6484 13.1184 40.7326 12.8452C40.8167 12.5719 40.8387 12.2833 40.7969 12.0005C40.8357 11.7188 40.8115 11.432 40.726 11.1608C40.6406 10.8895 40.496 10.6404 40.3027 10.4314C40.1094 10.2223 39.8721 10.0585 39.6079 9.95169C39.3437 9.84485 39.059 9.79761 38.7743 9.81337H37.6179V14.2002Z" fill="white"/>
<path d="M42.8426 12.7551C42.8135 12.4518 42.8483 12.1458 42.9447 11.8567C43.0412 11.5675 43.1972 11.3017 43.4027 11.0762C43.6082 10.8508 43.8587 10.6706 44.1382 10.5473C44.4176 10.424 44.7198 10.3604 45.0253 10.3604C45.3309 10.3604 45.6331 10.424 45.9125 10.5473C46.1919 10.6706 46.4424 10.8508 46.6479 11.0762C46.8535 11.3017 47.0095 11.5675 47.1059 11.8567C47.2024 12.1458 47.2372 12.4518 47.2081 12.7551C47.2377 13.0588 47.2033 13.3652 47.1071 13.6548C47.0109 13.9444 46.855 14.2107 46.6495 14.4366C46.4439 14.6626 46.1932 14.8431 45.9135 14.9666C45.6338 15.0902 45.3312 15.154 45.0253 15.154C44.7194 15.154 44.4169 15.0902 44.1372 14.9666C43.8574 14.8431 43.6068 14.6626 43.4012 14.4366C43.1956 14.2107 43.0397 13.9444 42.9435 13.6548C42.8473 13.3652 42.8129 13.0588 42.8426 12.7551ZM46.2685 12.7551C46.2685 11.7547 45.8178 11.1696 45.0268 11.1696C44.2328 11.1696 43.7862 11.7547 43.7862 12.7551C43.7862 13.7636 44.2329 14.3442 45.0268 14.3442C45.8178 14.3442 46.2685 13.7596 46.2685 12.7551H46.2685Z" fill="white"/>
<path d="M53.011 15.065H52.0635L51.1069 11.6656H51.0346L50.082 15.065H49.1434L47.8676 10.4495H48.7941L49.6233 13.9714H49.6915L50.6431 10.4495H51.5194L52.471 13.9714H52.5433L53.3684 10.4495H54.2818L53.011 15.065Z" fill="white"/>
<path d="M55.3548 10.4496H56.2341V11.1828H56.3024C56.4182 10.9195 56.6135 10.6987 56.861 10.5513C57.1086 10.4039 57.3962 10.3372 57.6836 10.3605C57.9088 10.3436 58.1349 10.3775 58.3452 10.4596C58.5555 10.5417 58.7446 10.6699 58.8985 10.8348C59.0523 10.9996 59.167 11.1969 59.234 11.412C59.301 11.627 59.3187 11.8544 59.2856 12.0772V15.065H58.3722V12.3059C58.3722 11.5642 58.049 11.1953 57.3734 11.1953C57.2205 11.1882 57.0679 11.2142 56.926 11.2714C56.784 11.3286 56.6562 11.4158 56.5513 11.5269C56.4463 11.638 56.3666 11.7704 56.3178 11.915C56.2689 12.0597 56.252 12.2132 56.2682 12.365V15.0651H55.3548L55.3548 10.4496Z" fill="white"/>
<path d="M60.7411 8.64771H61.6546V15.065H60.7411V8.64771Z" fill="white"/>
<path d="M62.9244 12.7552C62.8953 12.4519 62.9301 12.1458 63.0266 11.8567C63.1231 11.5676 63.2791 11.3017 63.4847 11.0763C63.6902 10.8508 63.9407 10.6706 64.2202 10.5473C64.4996 10.424 64.8018 10.3604 65.1074 10.3604C65.413 10.3604 65.7152 10.424 65.9946 10.5473C66.2741 10.6706 66.5246 10.8508 66.7301 11.0763C66.9357 11.3017 67.0917 11.5676 67.1881 11.8567C67.2846 12.1458 67.3194 12.4519 67.2904 12.7552C67.32 13.0589 67.2856 13.3653 67.1893 13.6549C67.0931 13.9445 66.9372 14.2108 66.7316 14.4367C66.526 14.6626 66.2753 14.8432 65.9956 14.9667C65.7159 15.0903 65.4133 15.1541 65.1074 15.1541C64.8015 15.1541 64.4989 15.0903 64.2192 14.9667C63.9395 14.8432 63.6888 14.6626 63.4832 14.4367C63.2776 14.2108 63.1217 13.9445 63.0254 13.6549C62.9292 13.3653 62.8948 13.0589 62.9244 12.7552ZM66.3503 12.7552C66.3503 11.7548 65.8996 11.1697 65.1086 11.1697C64.3147 11.1697 63.868 11.7548 63.868 12.7552C63.868 13.7637 64.3147 14.3443 65.1086 14.3443C65.8996 14.3443 66.3503 13.7597 66.3503 12.7552H66.3503Z" fill="white"/>
<path d="M68.252 13.7597C68.252 12.9288 68.8723 12.4499 69.9735 12.3818L71.2272 12.3097V11.9114C71.2272 11.4239 70.904 11.1486 70.2796 11.1486C69.7697 11.1486 69.4164 11.3353 69.315 11.6616H68.4306C68.524 10.8688 69.2718 10.3604 70.3218 10.3604C71.4822 10.3604 72.1366 10.9364 72.1366 11.9114V15.0649H71.2573V14.4163H71.185C71.0383 14.649 70.8324 14.8386 70.5881 14.966C70.3439 15.0933 70.0701 15.1537 69.7948 15.141C69.6005 15.1611 69.4041 15.1405 69.2183 15.0803C69.0325 15.0201 68.8614 14.9218 68.716 14.7917C68.5707 14.6615 68.4543 14.5024 68.3744 14.3247C68.2944 14.1469 68.2527 13.9545 68.252 13.7597ZM71.2272 13.3653V12.9794L70.0969 13.0515C69.4595 13.094 69.1704 13.3102 69.1704 13.7171C69.1704 14.1325 69.5318 14.3743 70.0287 14.3743C70.1743 14.3889 70.3214 14.3743 70.4612 14.3311C70.601 14.288 70.7306 14.2173 70.8424 14.1231C70.9543 14.029 71.046 13.9134 71.1121 13.7832C71.1781 13.653 71.2173 13.5109 71.2272 13.3653Z" fill="white"/>
<path d="M73.3372 12.7552C73.3372 11.2968 74.089 10.3729 75.2584 10.3729C75.5477 10.3596 75.8348 10.4287 76.0861 10.5721C76.3375 10.7155 76.5427 10.9273 76.6778 11.1827H76.746V8.64771H77.6595V15.065H76.7842V14.3357H76.7119C76.5664 14.5894 76.354 14.7986 76.0978 14.9405C75.8416 15.0824 75.5513 15.1518 75.2584 15.141C74.081 15.1411 73.3372 14.2172 73.3372 12.7552ZM74.2808 12.7552C74.2808 13.7342 74.7435 14.3233 75.5174 14.3233C76.2873 14.3233 76.7631 13.7257 76.7631 12.7592C76.7631 11.7973 76.2823 11.1912 75.5174 11.1912C74.7485 11.1912 74.2807 11.7843 74.2807 12.7552H74.2808Z" fill="white"/>
<path d="M81.4388 12.7551C81.4097 12.4518 81.4445 12.1458 81.5409 11.8567C81.6374 11.5675 81.7934 11.3017 81.9989 11.0762C82.2044 10.8508 82.4549 10.6706 82.7343 10.5473C83.0138 10.424 83.316 10.3604 83.6215 10.3604C83.9271 10.3604 84.2292 10.424 84.5087 10.5473C84.7881 10.6706 85.0386 10.8508 85.2441 11.0762C85.4496 11.3017 85.6056 11.5675 85.7021 11.8567C85.7985 12.1458 85.8333 12.4518 85.8042 12.7551C85.8339 13.0588 85.7995 13.3652 85.7033 13.6548C85.6071 13.9444 85.4512 14.2107 85.2456 14.4366C85.0401 14.6626 84.7894 14.8431 84.5097 14.9666C84.23 15.0902 83.9274 15.154 83.6215 15.154C83.3156 15.154 83.013 15.0902 82.7333 14.9666C82.4536 14.8431 82.2029 14.6626 81.9974 14.4366C81.7918 14.2107 81.6359 13.9444 81.5397 13.6548C81.4435 13.3652 81.4091 13.0588 81.4388 12.7551ZM84.8647 12.7551C84.8647 11.7547 84.414 11.1696 83.623 11.1696C82.829 11.1696 82.3824 11.7547 82.3824 12.7551C82.3824 13.7636 82.8291 14.3442 83.623 14.3442C84.414 14.3442 84.8647 13.7596 84.8647 12.7551Z" fill="white"/>
<path d="M87.0298 10.4496H87.9091V11.1828H87.9774C88.0932 10.9195 88.2885 10.6987 88.536 10.5513C88.7836 10.4039 89.0712 10.3372 89.3586 10.3605C89.5838 10.3436 89.8099 10.3775 90.0202 10.4596C90.2305 10.5417 90.4196 10.6699 90.5735 10.8348C90.7273 10.9996 90.842 11.1969 90.909 11.412C90.976 11.627 90.9937 11.8544 90.9606 12.0772V15.065H90.0472V12.3059C90.0472 11.5642 89.724 11.1953 89.0484 11.1953C88.8955 11.1882 88.7429 11.2142 88.601 11.2714C88.459 11.3286 88.3312 11.4158 88.2263 11.5269C88.1213 11.638 88.0416 11.7704 87.9928 11.915C87.9439 12.0597 87.927 12.2132 87.9432 12.365V15.0651H87.0298V10.4496Z" fill="white"/>
<path d="M96.1221 9.30029V10.4704H97.1249V11.2377H96.1221V13.611C96.1221 14.0945 96.3218 14.3062 96.7766 14.3062C96.893 14.3058 97.0093 14.2988 97.1249 14.2852V15.0439C96.9608 15.0732 96.7946 15.0887 96.628 15.0904C95.6122 15.0904 95.2076 14.7341 95.2076 13.8442V11.2376H94.4729V10.4704H95.2076V9.30029H96.1221Z" fill="white"/>
<path d="M98.3727 8.64771H99.2781V11.1912H99.3503C99.4718 10.9254 99.6724 10.7034 99.925 10.5554C100.178 10.4075 100.47 10.3408 100.762 10.3644C100.986 10.3522 101.21 10.3895 101.418 10.4736C101.625 10.5577 101.812 10.6865 101.964 10.8509C102.117 11.0152 102.231 11.211 102.298 11.4244C102.366 11.6377 102.385 11.8633 102.356 12.0851V15.065H101.441V12.3098C101.441 11.5726 101.097 11.1992 100.452 11.1992C100.295 11.1863 100.137 11.2079 99.9888 11.2622C99.841 11.3166 99.707 11.4026 99.596 11.514C99.485 11.6255 99.3997 11.7598 99.3462 11.9075C99.2927 12.0552 99.2722 12.2129 99.2861 12.3693V15.065H98.3727L98.3727 8.64771Z" fill="white"/>
<path d="M107.682 13.8188C107.558 14.2406 107.289 14.6055 106.922 14.8496C106.555 15.0937 106.114 15.2015 105.676 15.1541C105.371 15.1621 105.068 15.1039 104.788 14.9834C104.508 14.8629 104.258 14.6831 104.054 14.4565C103.851 14.2298 103.699 13.9617 103.61 13.6708C103.521 13.3799 103.496 13.0731 103.538 12.7718C103.497 12.4695 103.522 12.1621 103.611 11.8703C103.7 11.5785 103.851 11.3092 104.053 11.0805C104.256 10.8519 104.505 10.6693 104.784 10.545C105.064 10.4208 105.366 10.3578 105.672 10.3604C106.96 10.3604 107.737 11.2378 107.737 12.6872V13.005H104.469V13.0561C104.454 13.2254 104.476 13.3959 104.531 13.5566C104.587 13.7173 104.676 13.8646 104.792 13.9891C104.908 14.1136 105.049 14.2125 105.205 14.2795C105.362 14.3466 105.531 14.3802 105.701 14.3783C105.92 14.4045 106.141 14.3652 106.337 14.2656C106.533 14.166 106.695 14.0104 106.802 13.8188L107.682 13.8188ZM104.469 12.3313H106.806C106.818 12.1764 106.797 12.0208 106.744 11.8746C106.692 11.7283 106.61 11.5945 106.502 11.4819C106.395 11.3693 106.265 11.2804 106.121 11.2207C105.978 11.1611 105.823 11.1321 105.667 11.1357C105.509 11.1337 105.352 11.1633 105.206 11.2227C105.06 11.2821 104.927 11.3701 104.815 11.4815C104.703 11.5929 104.615 11.7255 104.556 11.8715C104.496 12.0175 104.467 12.1738 104.469 12.3313H104.469Z" fill="white"/>
</g>
<defs>
<clipPath id="clip0_2_211">
<rect width="123" height="41" fill="white"/>
</clipPath>
</defs>
</svg>
