<svg width="139" height="41" viewBox="0 0 139 41" fill="none" xmlns="http://www.w3.org/2000/svg">
<g clip-path="url(#clip0_2_192)">
<path d="M133.852 0H5.14815C2.3049 0 0 2.29454 0 5.125V35.875C0 38.7055 2.3049 41 5.14815 41H133.852C136.695 41 139 38.7055 139 35.875V5.125C139 2.29454 136.695 0 133.852 0Z" fill="black"/>
<path d="M133.852 0.82C134.999 0.82 136.099 1.27356 136.91 2.0809C137.721 2.88825 138.176 3.98324 138.176 5.125V35.875C138.176 37.0168 137.721 38.1117 136.91 38.9191C136.099 39.7264 134.999 40.18 133.852 40.18H5.14815C4.00123 40.18 2.90129 39.7264 2.0903 38.9191C1.27931 38.1117 0.823704 37.0168 0.823704 35.875V5.125C0.823704 3.98324 1.27931 2.88825 2.0903 2.0809C2.90129 1.27356 4.00123 0.82 5.14815 0.82H133.852ZM133.852 0H5.14815C3.78277 0 2.47332 0.539954 1.50786 1.50108C0.542393 2.4622 0 3.76576 0 5.125V35.875C0 37.2342 0.542393 38.5378 1.50786 39.4989C2.47332 40.46 3.78277 41 5.14815 41H133.852C135.217 41 136.527 40.46 137.492 39.4989C138.458 38.5378 139 37.2342 139 35.875V5.125C139 3.76576 138.458 2.4622 137.492 1.50108C136.527 0.539954 135.217 0 133.852 0Z" fill="#A6A6A6"/>
<path d="M48.8251 10.4961C48.842 10.872 48.7823 11.2474 48.6496 11.5997C48.5168 11.952 48.3139 12.2739 48.0528 12.5461C47.7603 12.8467 47.4074 13.0825 47.017 13.2379C46.6267 13.3933 46.2077 13.465 45.7877 13.4481C45.3652 13.4575 44.9452 13.3804 44.5538 13.2218C44.1624 13.0631 43.8079 12.8261 43.5122 12.5256C42.9122 11.9147 42.5763 11.0942 42.5763 10.2398C42.5763 9.38547 42.9122 8.56503 43.5122 7.95409C43.9709 7.50789 44.5518 7.2066 45.182 7.08806C45.8122 6.96952 46.4635 7.03902 47.0541 7.28784C47.4254 7.43978 47.7566 7.67476 48.022 7.97459L47.4763 8.51784C47.2718 8.27263 47.0127 8.07826 46.7196 7.95015C46.4265 7.82204 46.1074 7.76373 45.7877 7.77984C45.3841 7.78262 44.9873 7.88377 44.632 8.07444C44.2768 8.26512 43.9739 8.53951 43.7497 8.87365C43.5256 9.20778 43.3871 9.59148 43.3463 9.99121C43.3055 10.3909 43.3637 10.7945 43.5158 11.1667C43.6678 11.5389 43.9092 11.8683 44.2187 12.1262C44.5282 12.3841 44.8964 12.5626 45.2912 12.6461C45.686 12.7296 46.0953 12.7155 46.4834 12.6052C46.8715 12.4949 47.2265 12.2916 47.5174 12.0131C47.8319 11.6698 48.0143 11.2269 48.0323 10.7626H45.7877V10.0246H48.7839C48.8073 10.1808 48.8211 10.3382 48.8251 10.4961Z" fill="white" stroke="white" stroke-width="0.411304" stroke-miterlimit="10"/>
<path d="M53.5407 7.93355H50.7607V9.88105H53.2936V10.619H50.7607V12.5665H53.5407V13.325H49.9576V7.17505H53.5407V7.93355Z" fill="white" stroke="white" stroke-width="0.411304" stroke-miterlimit="10"/>
<path d="M56.918 13.325H56.1252V7.93355H54.3954V7.17505H58.689V7.93355H56.918V13.325Z" fill="white" stroke="white" stroke-width="0.411304" stroke-miterlimit="10"/>
<path d="M61.716 13.325V7.17505H62.5088V13.325H61.716Z" fill="white" stroke="white" stroke-width="0.411304" stroke-miterlimit="10"/>
<path d="M66.0301 13.325H65.2373V7.93355H63.5075V7.17505H67.7496V7.93355H66.0301V13.325Z" fill="white" stroke="white" stroke-width="0.411304" stroke-miterlimit="10"/>
<path d="M75.7911 12.5255C75.4937 12.8218 75.1406 13.0569 74.7519 13.2172C74.3632 13.3776 73.9466 13.4601 73.5259 13.4601C73.1051 13.4601 72.6885 13.3776 72.2999 13.2172C71.9112 13.0569 71.5581 12.8218 71.2607 12.5255C70.6786 11.9096 70.3545 11.0957 70.3545 10.25C70.3545 9.40436 70.6786 8.59052 71.2607 7.97455C71.5517 7.66992 71.9036 7.42949 72.2938 7.26881C72.684 7.10814 73.1038 7.0308 73.5259 7.0418C73.9474 7.03516 74.3658 7.11449 74.7554 7.27491C75.145 7.43532 75.4974 7.67342 75.7911 7.97455C76.0871 8.27435 76.3198 8.63017 76.4755 9.021C76.6311 9.41183 76.7065 9.82974 76.6971 10.25C76.7106 10.6709 76.6372 11.09 76.4813 11.4814C76.3255 11.8728 76.0905 12.2282 75.7911 12.5255ZM71.8476 12.013C72.0669 12.2343 72.3282 12.41 72.6163 12.5299C72.9044 12.6499 73.2136 12.7116 73.5259 12.7116C73.8382 12.7116 74.1473 12.6499 74.4354 12.5299C74.7235 12.41 74.9848 12.2343 75.2042 12.013C75.6484 11.5325 75.895 10.9032 75.895 10.25C75.895 9.59692 75.6484 8.96764 75.2042 8.48705C74.9848 8.26577 74.7235 8.09008 74.4354 7.97016C74.1473 7.85024 73.8382 7.78849 73.5259 7.78849C73.2136 7.78849 72.9044 7.85024 72.6163 7.97016C72.3282 8.09008 72.0669 8.26577 71.8476 8.48705C71.4033 8.96764 71.1567 9.59692 71.1567 10.25C71.1567 10.9032 71.4033 11.5325 71.8476 12.013Z" fill="white" stroke="white" stroke-width="0.411304" stroke-miterlimit="10"/>
<path d="M77.8195 13.325V7.17505H78.777L81.7835 11.9618V10.7728V7.17505H82.5763V13.325H81.7526L78.6123 8.3128V9.49155V13.325H77.8195Z" fill="white" stroke="white" stroke-width="0.411304" stroke-miterlimit="10"/>
<path d="M70.159 22.2938C69.2915 22.2958 68.444 22.5539 67.7239 23.0354C67.0037 23.5169 66.4431 24.2001 66.113 24.9988C65.7829 25.7974 65.6981 26.6756 65.8694 27.5222C66.0406 28.3688 66.4602 29.1459 67.075 29.7551C67.6899 30.3644 68.4724 30.7784 69.3237 30.9449C70.1749 31.1114 71.0566 31.0229 71.8573 30.6905C72.658 30.3581 73.3417 29.7969 73.822 29.0777C74.3023 28.3585 74.5575 27.5137 74.5555 26.6501C74.5639 26.074 74.4557 25.502 74.2375 24.9684C74.0193 24.4347 73.6954 23.9503 73.2852 23.5438C72.875 23.1373 72.3868 22.8172 71.8497 22.6025C71.3126 22.3877 70.7376 22.2828 70.159 22.2938ZM70.159 29.2946C69.6273 29.3316 69.0966 29.2085 68.6361 28.9413C68.1756 28.6742 67.8064 28.2753 67.5767 27.7965C67.3469 27.3177 67.2672 26.7811 67.3478 26.2566C67.4284 25.7321 67.6656 25.2438 68.0286 24.8553C68.3917 24.4668 68.8637 24.196 69.3834 24.0781C69.9031 23.9602 70.4464 24.0007 70.9427 24.1943C71.439 24.3878 71.8653 24.7255 72.1662 25.1635C72.4672 25.6015 72.6288 26.1194 72.6301 26.6501C72.6467 26.9863 72.5955 27.3224 72.4795 27.6386C72.3635 27.9548 72.1851 28.2447 71.9548 28.4911C71.7245 28.7376 71.4469 28.9357 71.1385 29.0737C70.8301 29.2117 70.497 29.2868 70.159 29.2946ZM60.5628 22.2938C59.6953 22.2958 58.8479 22.5539 58.1277 23.0354C57.4075 23.5169 56.847 24.2001 56.5169 24.9988C56.1868 25.7974 56.102 26.6756 56.2732 27.5222C56.4445 28.3688 56.864 29.1459 57.4789 29.7551C58.0938 30.3644 58.8763 30.7784 59.7275 30.9449C60.5788 31.1114 61.4605 31.0229 62.2612 30.6905C63.0619 30.3581 63.7456 29.7969 64.2259 29.0777C64.7061 28.3585 64.9614 27.5137 64.9593 26.6501C64.9677 26.074 64.8596 25.502 64.6414 24.9684C64.4231 24.4347 64.0993 23.9503 63.689 23.5438C63.2788 23.1373 62.7906 22.8172 62.2536 22.6025C61.7165 22.3877 61.1415 22.2828 60.5628 22.2938ZM60.5628 29.2946C60.0311 29.3316 59.5005 29.2085 59.04 28.9413C58.5794 28.6742 58.2103 28.2753 57.9805 27.7965C57.7508 27.3177 57.671 26.7811 57.7516 26.2566C57.8322 25.7321 58.0694 25.2438 58.4325 24.8553C58.7955 24.4668 59.2676 24.196 59.7873 24.0781C60.307 23.9602 60.8503 24.0007 61.3466 24.1943C61.8429 24.3878 62.2692 24.7255 62.5701 25.1635C62.871 25.6015 63.0326 26.1194 63.0339 26.6501C63.0505 26.9863 62.9993 27.3224 62.8833 27.6386C62.7674 27.9548 62.589 28.2447 62.3586 28.4911C62.1283 28.7376 61.8508 28.9357 61.5424 29.0737C61.2339 29.2117 60.9009 29.2868 60.5628 29.2946ZM49.1545 23.6366V25.4816H53.6025C53.5328 26.3506 53.1699 27.1706 52.5729 27.8083C52.1267 28.2609 51.5901 28.6151 50.9977 28.8482C50.4053 29.0813 49.7704 29.1879 49.1339 29.1613C47.8232 29.1613 46.5661 28.643 45.6393 27.7203C44.7124 26.7976 44.1917 25.5462 44.1917 24.2413C44.1917 22.9365 44.7124 21.685 45.6393 20.7624C46.5661 19.8397 47.8232 19.3213 49.1339 19.3213C50.3905 19.3027 51.6039 19.7778 52.5111 20.6436L53.8188 19.3418C53.2051 18.7376 52.4764 18.2614 51.6755 17.941C50.8746 17.6207 50.0176 17.4627 49.1545 17.4763C48.2392 17.4409 47.3261 17.5897 46.4699 17.914C45.6137 18.2382 44.8321 18.7312 44.1719 19.3634C43.5117 19.9955 42.9865 20.7538 42.6277 21.5929C42.2689 22.432 42.084 23.3345 42.084 24.2464C42.084 25.1584 42.2689 26.0609 42.6277 26.9C42.9865 27.739 43.5117 28.4974 44.1719 29.1295C44.8321 29.7617 45.6137 30.2547 46.4699 30.5789C47.3261 30.9032 48.2392 31.052 49.1545 31.0166C50.0353 31.0516 50.9135 30.9007 51.7316 30.5739C52.5497 30.2471 53.289 29.7517 53.9011 29.1203C54.9824 27.9379 55.5585 26.3827 55.5073 24.7846C55.511 24.3999 55.48 24.0157 55.4147 23.6366H49.1545ZM95.8071 25.0716C95.5385 24.2851 95.0364 23.5984 94.3671 23.1024C93.6978 22.6064 92.893 22.3244 92.0592 22.2938C91.496 22.2927 90.9385 22.4066 90.4213 22.6285C89.9041 22.8504 89.438 23.1755 89.052 23.5838C88.666 23.9921 88.3682 24.4749 88.1771 25.0023C87.9859 25.5297 87.9055 26.0905 87.9407 26.6501C87.9319 27.5857 88.2274 28.4991 88.783 29.2538C89.3387 30.0085 90.1247 30.564 91.0237 30.8373C91.9226 31.1107 92.8862 31.0871 93.7707 30.7703C94.6551 30.4534 95.4128 29.8602 95.9306 29.0793L94.4376 28.0543C94.2151 28.4236 93.8994 28.7286 93.5219 28.9389C93.1445 29.1493 92.7183 29.2578 92.2857 29.2536C91.8394 29.2719 91.398 29.1554 91.0195 28.9194C90.6409 28.6835 90.343 28.339 90.1647 27.9313L96.0233 25.5226L95.8071 25.0716ZM89.8352 26.5271C89.8143 26.2087 89.8575 25.8893 89.9621 25.5878C90.0668 25.2862 90.2308 25.0084 90.4446 24.7708C90.6585 24.5331 90.9178 24.3403 91.2074 24.2036C91.497 24.0669 91.8111 23.9891 92.1313 23.9748C92.463 23.9547 92.7934 24.0324 93.0809 24.1983C93.3685 24.3643 93.6005 24.611 93.7478 24.9076L89.8352 26.5271ZM85.0783 30.7501H87.0037V17.9376H85.0783V30.7501ZM81.9276 23.2676H81.8556C81.5679 22.9415 81.213 22.6811 80.8149 22.5042C80.4168 22.3273 79.9851 22.238 79.5492 22.2426C78.424 22.2969 77.3629 22.7801 76.5859 23.5921C75.8089 24.404 75.3754 25.4825 75.3754 26.6039C75.3754 27.7254 75.8089 28.8039 76.5859 29.6158C77.3629 30.4278 78.424 30.911 79.5492 30.9653C79.9857 30.974 80.4188 30.8867 80.8175 30.7095C81.2162 30.5323 81.5706 30.2697 81.8556 29.9403H81.9276V30.5656C81.9276 32.2363 81.0319 33.1281 79.5904 33.1281C79.1089 33.1175 78.6413 32.9648 78.2472 32.6892C77.853 32.4136 77.55 32.0277 77.3767 31.5803L75.7087 32.2671C76.0171 33.0381 76.5532 33.6979 77.2463 34.1591C77.9394 34.6203 78.7568 34.8612 79.5904 34.8501C81.8453 34.8501 83.7089 33.5278 83.7089 30.3093V22.5501H81.9276V23.2676ZM79.7139 29.2946C79.0393 29.2527 78.4061 28.9564 77.9433 28.466C77.4804 27.9756 77.2228 27.3281 77.2228 26.6552C77.2228 25.9823 77.4804 25.3347 77.9433 24.8444C78.4061 24.354 79.0393 24.0577 79.7139 24.0158C80.0437 24.03 80.3672 24.11 80.6652 24.2512C80.9632 24.3924 81.2296 24.5918 81.4487 24.8375C81.6677 25.0833 81.8348 25.3704 81.9401 25.6818C82.0454 25.9932 82.0867 26.3225 82.0615 26.6501C82.0896 26.9788 82.0504 27.3097 81.9463 27.6229C81.8423 27.9362 81.6755 28.2251 81.456 28.4723C81.2366 28.7195 80.9691 28.9198 80.6696 29.0612C80.3702 29.2025 80.0451 29.2819 79.7139 29.2946ZM104.827 17.9376H100.214V30.7501H102.139V25.8916H104.827C105.375 25.9308 105.926 25.8571 106.445 25.675C106.964 25.4929 107.44 25.2064 107.842 24.8332C108.245 24.4601 108.566 24.0084 108.786 23.5062C109.006 23.0041 109.119 22.4623 109.119 21.9146C109.119 21.3669 109.006 20.8251 108.786 20.3229C108.566 19.8208 108.245 19.369 107.842 18.9959C107.44 18.6227 106.964 18.3362 106.445 18.1541C105.926 17.972 105.375 17.8983 104.827 17.9376ZM104.827 24.0876H102.139V19.7211H104.868C105.157 19.7211 105.444 19.7778 105.711 19.888C105.978 19.9983 106.221 20.1598 106.426 20.3635C106.63 20.5672 106.793 20.809 106.903 21.0752C107.014 21.3413 107.071 21.6265 107.071 21.9146C107.071 22.2026 107.014 22.4879 106.903 22.754C106.793 23.0201 106.63 23.2619 106.426 23.4656C106.221 23.6693 105.978 23.8309 105.711 23.9411C105.444 24.0513 105.157 24.1081 104.868 24.1081L104.827 24.0876ZM116.709 22.2528C116.007 22.2098 115.309 22.3723 114.7 22.7202C114.09 23.0682 113.597 23.5863 113.28 24.2106L114.979 24.9178C115.15 24.6097 115.408 24.3577 115.72 24.1921C116.033 24.0266 116.387 23.9547 116.739 23.9851C116.984 23.9567 117.231 23.977 117.468 24.0448C117.704 24.1127 117.925 24.2268 118.117 24.3804C118.308 24.534 118.467 24.7241 118.584 24.9396C118.702 25.155 118.774 25.3915 118.799 25.6353V25.7583C118.18 25.4343 117.49 25.2655 116.791 25.2663C114.958 25.2663 113.084 26.2913 113.084 28.1568C113.102 28.5533 113.2 28.9422 113.372 29.3003C113.544 29.6583 113.787 29.9783 114.086 30.2413C114.384 30.5042 114.733 30.7047 115.111 30.8308C115.489 30.957 115.889 31.0062 116.286 30.9756C116.77 31.0022 117.251 30.9004 117.682 30.6806C118.112 30.4609 118.477 30.1311 118.737 29.7251H118.799V30.7501H120.652V25.8198C120.652 23.5751 118.943 22.2733 116.75 22.2733L116.709 22.2528ZM116.472 29.2741C115.844 29.2741 114.968 28.9563 114.968 28.1876C114.968 27.1626 116.06 26.8141 117.028 26.8141C117.639 26.799 118.244 26.9477 118.778 27.2446C118.713 27.8012 118.448 28.3157 118.032 28.6926C117.615 29.0695 117.076 29.2834 116.513 29.2946L116.472 29.2741ZM127.406 22.5501L125.203 28.1056H125.141L122.855 22.5501H120.796L124.225 30.3196L122.269 34.6348H124.276L129.548 22.5501H127.406ZM110.109 30.7501H112.024V17.9376H110.109V30.7501Z" fill="white"/>
<path d="M10.7494 7.72849C10.4101 8.12785 10.237 8.64121 10.2654 9.16349V31.8365C10.2304 32.3596 10.4043 32.8754 10.7494 33.2715L10.8214 33.3535L23.5786 20.6537V20.3462L10.8214 7.65674L10.7494 7.72849Z" fill="url(#paint0_linear_2_192)"/>
<path d="M27.7999 24.887L23.5785 20.6538V20.3463L27.7999 16.113L27.8926 16.1745L32.9481 19.024C34.3896 19.8338 34.3896 21.1663 32.9481 21.9863L27.9132 24.8358L27.7999 24.887Z" fill="url(#paint1_linear_2_192)"/>
<path d="M27.9235 24.8255L23.5785 20.5L10.7493 33.2715C11.0402 33.5293 11.4126 33.6776 11.8019 33.6907C12.1912 33.7038 12.5728 33.5809 12.8806 33.3432L27.9235 24.8255Z" fill="url(#paint2_linear_2_192)"/>
<path d="M27.9235 16.1744L12.8806 7.66688C12.5749 7.42592 12.1935 7.29999 11.8037 7.31124C11.4139 7.32249 11.0405 7.47019 10.7493 7.72838L23.5785 20.4999L27.9235 16.1744Z" fill="url(#paint3_linear_2_192)"/>
<path opacity="0.2" d="M27.8 24.7332L12.8806 33.1894C12.584 33.4122 12.2226 33.5328 11.851 33.5328C11.4794 33.5328 11.118 33.4122 10.8214 33.1894L10.7493 33.2612L10.8214 33.3432C11.118 33.566 11.4794 33.6865 11.851 33.6865C12.2226 33.6865 12.584 33.566 12.8806 33.3432L27.9235 24.8254L27.8 24.7332Z" fill="black"/>
<path opacity="0.12" d="M10.7493 33.1281C10.4186 32.7216 10.2565 32.2045 10.2963 31.6829V31.8366C10.2613 32.3598 10.4352 32.8755 10.7802 33.2716L10.8523 33.1999L10.7493 33.1281Z" fill="black"/>
<path opacity="0.12" d="M32.9481 21.8325L27.7999 24.7333L27.8926 24.8255L32.9481 21.976C33.2465 21.8504 33.5054 21.647 33.6975 21.3872C33.8895 21.1275 34.0077 20.821 34.0395 20.5C33.9751 20.7917 33.8428 21.0642 33.6532 21.2957C33.4637 21.5271 33.2221 21.711 32.9481 21.8325Z" fill="black"/>
<path opacity="0.25" d="M12.8807 7.81045L32.9482 19.1675C33.2222 19.2889 33.4637 19.4728 33.6533 19.7043C33.8429 19.9357 33.9752 20.2083 34.0396 20.5C34.0077 20.179 33.8896 19.8725 33.6975 19.6127C33.5054 19.353 33.2466 19.1496 32.9482 19.024L12.8807 7.66695C11.4495 6.84695 10.2654 7.52345 10.2654 9.16345V9.3172C10.2963 7.6772 11.4495 7.0007 12.8807 7.81045Z" fill="white"/>
</g>
<defs>
<linearGradient id="paint0_linear_2_192" x1="22.446" y1="8.92774" x2="5.24664" y2="26.2047" gradientUnits="userSpaceOnUse">
<stop stop-color="#00A0FF"/>
<stop offset="0.01" stop-color="#00A1FF"/>
<stop offset="0.26" stop-color="#00BEFF"/>
<stop offset="0.51" stop-color="#00D2FF"/>
<stop offset="0.76" stop-color="#00DFFF"/>
<stop offset="1" stop-color="#00E3FF"/>
</linearGradient>
<linearGradient id="paint1_linear_2_192" x1="34.8323" y1="20.5" x2="9.92557" y2="20.5" gradientUnits="userSpaceOnUse">
<stop stop-color="#FFE000"/>
<stop offset="0.41" stop-color="#FFBD00"/>
<stop offset="0.78" stop-color="#FFA500"/>
<stop offset="1" stop-color="#FF9C00"/>
</linearGradient>
<linearGradient id="paint2_linear_2_192" x1="25.5657" y1="22.8575" x2="2.23685" y2="46.2814" gradientUnits="userSpaceOnUse">
<stop stop-color="#FF3A44"/>
<stop offset="1" stop-color="#C31162"/>
</linearGradient>
<linearGradient id="paint3_linear_2_192" x1="7.51626" y1="0.184384" x2="17.9302" y2="10.6453" gradientUnits="userSpaceOnUse">
<stop stop-color="#32A071"/>
<stop offset="0.07" stop-color="#2DA771"/>
<stop offset="0.48" stop-color="#15CF74"/>
<stop offset="0.8" stop-color="#06E775"/>
<stop offset="1" stop-color="#00F076"/>
</linearGradient>
<clipPath id="clip0_2_192">
<rect width="139" height="41" fill="white"/>
</clipPath>
</defs>
</svg>
