<svg width="217" height="94" viewBox="0 0 217 94" fill="none" xmlns="http://www.w3.org/2000/svg">
<path fill-rule="evenodd" clip-rule="evenodd" d="M61.7632 6.85367C40.4343 6.85367 8.84628 29.3072 11.795 56.4438C13.3947 71.4128 30.5911 70.9852 30.5911 70.9852C-3.50314 56.6951 30.7724 12.4243 65.7837 7.13701C64.4809 6.94393 63.1655 6.84921 61.8485 6.85367H61.7632Z" fill="white"/>
<path fill-rule="evenodd" clip-rule="evenodd" d="M207.956 28.1898H207.615V26.6875H207.919C208.399 26.6875 208.618 26.9281 208.618 27.4039C208.618 27.8797 208.404 28.1898 207.956 28.1898ZM206.154 31.638H207.599V29.2964H207.956L208.639 31.638H210.239L209.236 28.965C209.512 28.8054 209.736 28.5689 209.881 28.2843C210.026 27.9996 210.085 27.6789 210.052 27.3611C210.063 26.9708 209.959 26.5859 209.753 26.2545C209.591 25.9737 209.331 25.7625 209.023 25.6611C208.667 25.5634 208.299 25.5184 207.93 25.5274H206.143V31.638H206.154ZM208.079 32.7072C210.041 32.7072 211.636 30.8789 211.641 28.6282C211.681 27.5612 211.317 26.5186 210.623 25.7092C210.317 25.3348 209.932 25.0331 209.496 24.826C209.06 24.6189 208.583 24.5115 208.1 24.5117C206.234 24.5812 204.736 26.2919 204.661 28.4357C204.581 30.6917 206.111 32.5949 208.074 32.7126L208.079 32.7072ZM204.757 24.8592C203.89 25.8604 203.399 27.1343 203.37 28.4602C203.34 29.7861 203.775 31.0805 204.597 32.1191L204.757 32.3009C205.166 32.7869 205.675 33.1775 206.25 33.4455C206.824 33.7134 207.451 33.8523 208.084 33.8523C208.718 33.8523 209.344 33.7134 209.919 33.4455C210.494 33.1775 211.003 32.7869 211.412 32.3009C212.283 31.2909 212.773 30.0069 212.799 28.672C212.824 27.3371 212.382 26.0354 211.55 24.9928L211.438 24.8645C211.029 24.3779 210.519 23.9866 209.943 23.718C209.368 23.4493 208.741 23.3097 208.106 23.3088C207.477 23.3066 206.855 23.4424 206.284 23.7065C205.713 23.9706 205.206 24.3567 204.8 24.8378H204.757V24.8592ZM93.0364 44.8214C95.9265 42.3943 98.1678 41.1861 99.7603 41.1968C100.939 41.1968 101.531 41.7314 101.525 42.8541C101.52 43.9767 100.747 45.6233 99.2005 47.7885C97.0628 50.585 94.696 53.1976 92.1246 55.5991C91.098 55.0125 89.9776 54.6091 88.8133 54.4069C87.2367 54.3632 85.6592 54.44 84.0943 54.6368C86.6872 51.0364 89.688 47.7498 93.0364 44.8428V44.8214ZM175.851 57.0051C175.549 57.0053 175.252 56.9195 174.997 56.7577C174.741 56.5959 174.536 56.3647 174.406 56.0909C174.03 55.3752 173.847 54.5738 173.873 53.7654C173.873 51.1779 175.643 48.6599 179.173 46.2381C182.703 43.8163 188.616 40.8493 196.913 37.3797C192.971 42.3979 189.614 46.37 186.841 49.2961C184.166 52.1331 181.062 54.5291 177.643 56.3957C177.063 56.709 176.433 56.9171 175.782 57.0105L175.851 57.0051ZM121.335 43.7308C122.35 42.2964 123.554 41.0054 124.912 39.8923C126.131 38.8852 127.447 38.004 128.842 37.2621C130.127 36.5938 131.066 36.257 131.642 36.257C131.779 36.2376 131.919 36.2508 132.05 36.2957C132.182 36.3405 132.301 36.4156 132.398 36.5149C132.495 36.6143 132.567 36.7351 132.609 36.8677C132.651 37.0003 132.661 37.1408 132.639 37.2781C132.639 37.9517 132.159 38.9354 131.194 40.3414C129.919 42.0281 128.39 43.5053 126.661 44.7198C124.403 46.3513 121.916 47.6377 119.282 48.5369C119.602 46.7975 120.309 45.1529 121.35 43.7255L121.335 43.7308ZM96.9236 23.373C95.0301 24.7768 93.349 26.4478 91.9326 28.3341C90.0077 30.6543 87.4749 33.7871 84.2276 37.7432C80.9803 41.6993 77.1197 45.8692 72.662 50.3332V53.4072C76.4265 49.8432 81.988 43.9411 89.3465 35.701C85.7064 42.7257 81.7659 49.5366 77.525 56.1337C76.9171 57.08 75.8773 58.502 74.395 60.4106C72.9126 62.3191 71.5796 64.233 70.3318 66.1202C69.1049 68.0085 68.0604 70.0099 67.2125 72.0971C66.399 74.0255 65.9627 76.0927 65.9274 78.1862C65.9274 80.4263 66.6099 81.5382 67.9803 81.5436C68.2949 81.5436 68.8441 81.1907 69.644 80.4369C71.0159 78.911 72.173 77.204 73.0832 75.3635C73.94 73.6029 75.0064 71.2292 76.2826 68.2426C77.316 65.7493 78.4819 63.3134 79.7752 60.9452C80.9586 61.68 82.305 62.1097 83.6944 62.1961C83.817 62.1961 84.3929 62.0839 85.422 61.854C85.9019 61.9983 86.6484 62.255 87.6082 62.6131C88.568 62.9713 89.3465 63.244 89.9491 63.4364C90.6007 63.6385 91.2629 63.8045 91.9326 63.9336C92.6036 64.067 93.2856 64.1368 93.9695 64.1421C95.9508 64.076 97.8866 63.5294 99.611 62.549C101.91 61.3381 104.101 59.9304 106.159 58.3416C107.663 57.1869 109.202 55.9822 110.777 54.7277C110.937 57.7054 111.737 60.0738 113.182 61.8968C114.824 63.9336 117.079 64.9601 119.927 64.9708C128.917 65.0028 143.708 51.0335 147.873 43.4368C148.529 43.3138 149.499 43.1588 150.736 42.961C151.973 42.7632 153.147 42.56 154.277 42.3783C155.407 42.1965 156.41 42.0147 157.29 41.8436C155.658 43.6383 154.131 45.5249 152.715 47.4944C151.501 49.1392 150.461 50.9058 149.611 52.7657C148.961 54.1178 148.598 55.5905 148.545 57.0906C148.545 59.2291 148.982 60.8864 149.889 62.0197C150.265 62.5539 150.765 62.9889 151.345 63.2877C151.925 63.5865 152.569 63.7402 153.221 63.7358C154.619 63.6582 155.973 63.2139 157.146 62.4474C158.841 61.4201 160.446 60.2504 161.945 58.9511C163.534 57.5967 165.519 55.7844 167.901 53.5141C168.031 55.0176 168.417 56.4875 169.042 57.8605C169.736 59.4516 170.676 60.9236 171.825 62.2229C172.892 63.3313 173.766 63.8944 174.449 63.9122C175.924 63.9122 177.794 62.909 180.058 60.9024C182.33 58.8976 185.785 55.5136 190.467 50.7449C188.632 55.1714 187.726 58.4913 187.715 60.8382C187.715 62.3191 187.961 63.4257 188.483 64.1582C189.006 64.8906 189.902 65.2915 191.149 65.2969C194.626 65.2969 200.39 61.1857 208.495 52.9474V50.2744C203.717 54.1129 200.219 56.0268 198.001 56.0161C195.783 56.0054 194.701 54.913 194.754 52.7389C194.721 51.5504 195.048 50.3799 195.692 49.3816C196.311 48.4781 197.404 47.0561 198.956 45.1368C200.507 43.2176 201.28 41.9025 201.28 41.1968C201.27 40.7743 201.176 40.358 201.003 39.9725C200.806 39.5181 200.545 38.9033 200.198 38.1869L199.34 36.3532C200.159 36.1338 200.96 35.8477 201.734 35.4979C201.945 35.3866 202.12 35.2175 202.239 35.0102C202.358 34.8029 202.416 34.566 202.406 34.3271C202.344 33.7975 202.179 33.2852 201.92 32.8195C201.584 32.1401 201.123 31.5306 200.561 31.0232C200.062 30.5379 199.4 30.2591 198.705 30.2427C196.21 30.2427 192.696 31.2103 188.131 33.1616C182.996 35.455 178.217 38.478 173.942 42.1377C172.531 43.324 171.204 44.6065 169.97 45.9762C169.226 46.8027 168.65 47.767 168.274 48.8149C168.133 49.3252 168.03 49.8452 167.965 50.3706C163.432 53.728 160.254 55.3959 158.367 55.3799C156.479 55.3639 155.599 54.6849 155.605 53.2949C155.605 52.3006 156.175 50.8144 157.332 48.8684C158.517 46.8727 159.95 45.0367 161.598 43.4047C162.665 42.4088 163.681 41.3596 164.643 40.2612C165.156 39.7132 165.469 39.0061 165.528 38.2564C165.521 37.2563 165.341 36.2649 164.995 35.3268C164.806 34.5722 164.344 33.9149 163.699 33.4824C163.254 33.3346 162.786 33.2729 162.318 33.3006C160.59 33.3006 156.444 33.7533 149.878 34.6585C150.875 33.1349 151.36 32.1191 151.366 31.6166C151.371 31.1141 151.056 30.7773 150.4 30.7773C149.954 30.7857 149.515 30.8877 149.11 31.0767C147.647 31.7015 146.333 32.6309 145.255 33.8032C143.884 35.1554 142.692 36.6791 141.709 38.3366C140.744 39.9404 140.264 41.2983 140.264 42.3515C140.233 42.7358 140.277 43.1225 140.395 43.4895C140.513 43.8564 140.702 44.1964 140.952 44.49C141.583 45.0674 142.347 45.4805 143.175 45.6928C139.928 50.4615 133.663 55.1019 128.608 57.1227C127.086 57.7585 125.457 58.096 123.809 58.1171C123.135 58.1403 122.464 58.0209 121.839 57.7667C121.214 57.5125 120.65 57.1291 120.183 56.6416C119.697 56.0879 119.325 55.4436 119.088 54.7454C118.851 54.0473 118.754 53.3091 118.802 52.5732V51.4559C122.732 50.0551 126.535 48.3202 130.17 46.2702C133.263 44.4882 135.556 42.6705 137.049 40.8172C138.542 38.9639 139.29 37.1195 139.293 35.284C139.33 34.7369 139.23 34.1892 139.001 33.6913C138.771 33.1934 138.421 32.7613 137.982 32.4346C136.931 31.7408 135.687 31.4018 134.43 31.4669C132.228 31.5189 130.056 31.9944 128.032 32.8676C125.434 33.9588 123.001 35.4072 120.801 37.1712C117.25 39.9404 114.707 42.6028 113.128 45.1154C111.93 47.0299 111.167 49.1856 110.894 51.4292C105.775 55.3496 101.614 57.2974 98.4113 57.2724C97.2388 57.2706 96.0748 57.0737 94.9667 56.6897C97.8145 54.3412 100.536 51.8429 103.12 49.2052C105.098 47.2262 106.807 44.9936 108.201 42.5654C109.351 40.5734 109.97 38.3179 109.998 36.0164C109.998 35.1557 109.881 34.5944 109.593 34.2896C109.305 33.9849 108.745 33.8459 107.855 33.8406C106.418 33.8429 104.995 34.1224 103.664 34.6639C102.182 35.2662 100.768 36.0243 99.4457 36.9253C98.0274 37.8715 96.1931 39.2027 93.9429 40.8814C91.6927 42.56 89.6771 44.0195 87.9708 45.2491C90.1783 41.3999 92.1548 38.2315 93.9002 35.7438C95.4481 33.4954 97.2361 31.4231 99.2325 29.5637C100.474 28.4426 101.604 27.2037 102.608 25.8642C103.488 24.6667 103.925 23.7258 103.93 23.1324C103.93 22.3679 103.397 21.983 102.33 21.983H102.272C100.394 21.9133 98.5382 22.4045 96.9396 23.3944H96.9663L96.9236 23.373ZM138.675 15.4661V15.4394C139.629 14.8513 140.984 14.5573 142.749 14.5573H142.807C145.164 14.5573 146.337 15.3164 146.337 16.8187C146.337 17.6741 145.305 19.0836 143.239 21.0474C141.162 23.028 138.953 24.8642 136.627 26.5432C134.276 28.2486 132.804 29.0933 132.191 29.0933C131.653 29.0854 131.133 28.8972 130.714 28.5587C130.525 28.4382 130.367 28.2757 130.251 28.0837C130.136 27.8917 130.066 27.6755 130.047 27.452C130.047 26.3828 131.713 23.6046 135.044 19.1175C136.478 17.2571 137.683 16.0435 138.675 15.4447V15.4661ZM46.4275 35.1718C49.3294 32.4288 52.6439 30.161 56.2494 28.4517C59.6727 26.8746 62.5521 26.0888 64.9249 26.0995C67.9856 26.0995 69.5107 27.7425 69.5 31.0285C69.5 35.4551 67.5129 40.386 63.5386 45.8211C59.6423 51.1643 54.9272 55.8556 49.5682 59.7209C23.3496 77.7906 24.4587 48.4621 45.0358 32.3971C42.1777 36.674 40.4234 40.1436 39.7889 42.9075C43.1233 38.7839 45.3433 36.1982 46.4488 35.1504L46.4275 35.1718ZM52.9701 15.2309H52.9275C57.7442 12.8964 61.6545 11.7274 64.6583 11.7239H64.7063C67.1751 11.7239 69.0841 12.3814 70.3958 13.6645C71.7075 14.9476 72.9393 17.0218 74.075 19.8873C71.2396 19.9187 68.4147 20.2412 65.6448 20.8496C63.0785 21.4717 60.5784 22.3418 58.1797 23.4478L61.0324 22.8384C61.9922 22.6406 62.9734 22.4695 63.9598 22.3038C64.917 22.165 65.8828 22.0953 66.8499 22.0953C68.6456 22.0514 70.4244 22.4536 72.0275 23.266C73.393 23.9595 74.5202 25.0469 75.2641 26.3882C75.9765 27.6997 76.3435 29.1717 76.3306 30.665C76.2337 33.4639 75.7031 36.2306 74.7576 38.8659C73.6143 42.1379 72.1253 45.2778 70.3158 48.2322C68.3632 51.4349 66.1041 54.4393 63.5706 57.2029C59.9826 61.0757 55.6731 64.2068 50.8852 66.4195C44.4226 69.4561 35.8857 71.7282 29.3324 67.7454C26.979 66.294 25.104 64.1799 23.9415 61.6669C22.5808 58.7244 21.92 55.5053 22.0112 52.2631C22.0112 47.4232 23.5896 42.5921 26.7463 37.7699C29.9901 32.8084 33.9795 28.3794 38.5731 24.64C42.9878 20.9436 47.8241 17.7852 52.9808 15.2309H52.9701Z" fill="white"/>
<path fill-rule="evenodd" clip-rule="evenodd" d="M146.162 68.4779C145.36 68.0964 144.479 67.9131 143.592 67.9433H138.958V80.9021H141.054V77.1599H143.592C144.478 77.1876 145.359 77.0044 146.162 76.6253C146.864 76.2691 147.443 75.7106 147.825 75.0215C148.204 74.2563 148.401 73.4138 148.401 72.5596C148.401 71.7054 148.204 70.8629 147.825 70.0977C147.443 69.4086 146.864 68.8501 146.162 68.4939V68.4779ZM145.57 74.4387C144.99 74.9321 144.238 75.1761 143.48 75.1177H141.032V69.9694H143.48C144.236 69.916 144.984 70.1552 145.57 70.6377L145.623 70.7018C146.052 71.2326 146.281 71.8972 146.271 72.58C146.262 73.2627 146.013 73.9205 145.57 74.4387Z" fill="white"/>
<path fill-rule="evenodd" clip-rule="evenodd" d="M156.234 71.5252C155.566 71.1013 154.79 70.882 154 70.8943C153.187 70.8814 152.388 71.1062 151.701 71.5412C151.014 71.9796 150.461 72.5993 150.102 73.3321C149.717 74.1487 149.518 75.0406 149.518 75.9437C149.518 76.8468 149.717 77.7386 150.102 78.5552C150.475 79.3012 151.05 79.9272 151.76 80.3622C152.443 80.7484 153.207 80.9711 153.99 81.0128C154.774 81.0545 155.556 80.9142 156.276 80.6028C156.853 80.3302 157.353 79.9188 157.732 79.4053L156.666 77.9832C156.392 78.3335 156.039 78.6138 155.637 78.8012C155.223 78.9764 154.779 79.0638 154.33 79.0578C153.812 79.0685 153.301 78.9412 152.848 78.6889C152.417 78.4391 152.07 78.067 151.851 77.6197C151.703 77.3232 151.6 77.006 151.547 76.6788H158.303C158.303 76.5665 158.329 76.4489 158.329 76.3259V75.9945C158.349 75.0614 158.155 74.1362 157.764 73.2894C157.419 72.5665 156.882 71.9525 156.212 71.5145L156.234 71.5252ZM151.835 74.1447C152.023 73.7279 152.324 73.3723 152.704 73.1183C153.087 72.8643 153.54 72.7355 154 72.7494C154.453 72.7408 154.899 72.8693 155.279 73.1183C155.658 73.372 155.962 73.7227 156.159 74.134C156.309 74.4544 156.405 74.7977 156.442 75.1498H151.552C151.595 74.8012 151.694 74.4618 151.845 74.1447H151.835Z" fill="white"/>
<path fill-rule="evenodd" clip-rule="evenodd" d="M161.31 66.6175C161.136 66.612 160.963 66.6445 160.803 66.7128C160.643 66.7811 160.499 66.8836 160.383 67.0131C160.148 67.288 160.02 67.6378 160.02 67.9994C160.02 68.3611 160.148 68.7108 160.383 68.9858C160.498 69.1178 160.641 69.2226 160.801 69.2929C160.962 69.3631 161.135 69.397 161.31 69.3921C161.487 69.398 161.663 69.3636 161.825 69.2913C161.987 69.2191 162.13 69.1109 162.244 68.9751C162.483 68.6879 162.61 68.323 162.601 67.9486C162.606 67.7735 162.575 67.5991 162.512 67.4358C162.449 67.2724 162.354 67.1232 162.233 66.997C162.115 66.8709 161.972 66.7716 161.813 66.7061C161.654 66.6406 161.482 66.6104 161.31 66.6175Z" fill="white"/>
<path fill-rule="evenodd" clip-rule="evenodd" d="M160.292 80.9022L162.308 80.8915V71.0066H160.292V80.9022Z" fill="white"/>
<path fill-rule="evenodd" clip-rule="evenodd" d="M171.697 71.3594C171.131 71.0463 170.493 70.8861 169.847 70.8943C169.152 70.8816 168.467 71.057 167.863 71.4022C167.478 71.624 167.145 71.9268 166.887 72.2897V71.0066H164.968V80.8915H166.989V75.9143C166.971 75.347 167.073 74.7824 167.287 74.257C167.462 73.8482 167.758 73.503 168.135 73.268C168.515 73.0413 168.951 72.9264 169.394 72.9365C169.677 72.9215 169.96 72.9721 170.221 73.0843C170.481 73.1964 170.713 73.3672 170.897 73.5834C171.298 74.155 171.486 74.8491 171.43 75.5454V80.8915H173.441V75.23C173.471 74.3865 173.309 73.5472 172.966 72.7761C172.696 72.186 172.253 71.692 171.697 71.3594Z" fill="white"/>
<path fill-rule="evenodd" clip-rule="evenodd" d="M179.472 79.1219C179.305 79.1305 179.139 79.0997 178.986 79.0319C178.833 78.9641 178.698 78.8613 178.592 78.7317C178.37 78.4212 178.259 78.0443 178.278 77.6625V72.9686H180.581V71.1028H178.278V68.8414H176.262V71.1028H174.844V72.9579H176.262V77.7106C176.201 78.6045 176.474 79.4892 177.03 80.1911C177.314 80.4812 177.658 80.7064 178.037 80.8512C178.416 80.9961 178.822 81.0572 179.227 81.0305C179.59 81.0262 179.949 80.9649 180.293 80.8487C180.615 80.748 180.912 80.5784 181.162 80.3515L180.597 78.7156C180.287 78.9889 179.885 79.1341 179.472 79.1219Z" fill="white"/>
<path fill-rule="evenodd" clip-rule="evenodd" d="M189.134 76.0158C189.146 76.5758 189.044 77.1324 188.835 77.6517C188.673 78.061 188.388 78.4094 188.019 78.6481C187.65 78.8868 187.215 79.0038 186.777 78.9829C186.494 79 186.212 78.9492 185.953 78.8348C185.695 78.7204 185.467 78.5458 185.289 78.3253C184.893 77.7416 184.705 77.0408 184.756 76.3366V70.9905H182.74V76.6359C182.713 77.4792 182.875 78.3178 183.215 79.0898C183.488 79.6952 183.945 80.1985 184.521 80.5279C185.111 80.8551 185.777 81.0192 186.451 81.0037C187.102 81.0008 187.74 80.8157 188.291 80.4691C188.661 80.2467 188.979 79.9478 189.224 79.5923V80.8486H191.133V71.0065H189.134V76.0158Z" fill="white"/>
<path fill-rule="evenodd" clip-rule="evenodd" d="M196.689 71.4182C196.285 71.6704 195.95 72.0195 195.714 72.434V71.0066H193.794V80.8915H195.81V76.08C195.745 75.267 195.98 74.4586 196.471 73.8079C196.698 73.5529 196.979 73.3515 197.294 73.2184C197.608 73.0853 197.948 73.0237 198.289 73.0381H198.529C198.608 73.049 198.687 73.0651 198.764 73.0862V70.8836C198.036 70.863 197.317 71.0483 196.689 71.4182Z" fill="white"/>
<path fill-rule="evenodd" clip-rule="evenodd" d="M207.957 73.3C207.611 72.5771 207.075 71.9631 206.405 71.5251C205.736 71.1004 204.957 70.8812 204.166 70.8942C203.355 70.8821 202.558 71.1068 201.873 71.5411C201.186 71.9796 200.632 72.5992 200.273 73.332C199.894 74.1501 199.697 75.0414 199.697 75.9436C199.697 76.8458 199.894 77.737 200.273 78.5552C200.65 79.3003 201.226 79.9259 201.937 80.3621C202.619 80.7483 203.382 80.9709 204.164 81.0126C204.947 81.0544 205.728 80.9141 206.448 80.6027C207.026 80.3303 207.528 79.9189 207.909 79.4052L206.842 77.9831C206.572 78.3321 206.223 78.6123 205.824 78.8011C205.411 78.9763 204.966 79.0637 204.517 79.0577C203.999 79.0684 203.488 78.9411 203.035 78.6888C202.604 78.4378 202.256 78.0662 202.033 77.6196C201.889 77.3219 201.788 77.005 201.734 76.6787H208.49C208.49 76.5664 208.517 76.4488 208.517 76.3258V75.9944C208.536 75.0613 208.343 74.1361 207.951 73.2893L207.957 73.3ZM202.001 74.1446C202.191 73.7288 202.491 73.3737 202.87 73.1182C203.257 72.8772 203.704 72.7494 204.16 72.7494C204.616 72.7494 205.063 72.8772 205.451 73.1182C205.827 73.3722 206.129 73.723 206.325 74.1339C206.48 74.4531 206.577 74.7969 206.613 75.1497H201.718C201.755 74.8041 201.841 74.4656 201.974 74.1446H202.001Z" fill="white"/>
<path d="M97.9847 72.0437H80.0098V75.5882H97.9847V72.0437Z" fill="#00A651"/>
<path d="M115.885 72.0437H97.9102V75.5882H115.885V72.0437Z" fill="white"/>
<path d="M133.87 72.0437H115.896V75.5882H133.87V72.0437Z" fill="#ED1C24"/>
</svg>
